HIERARCHY
ROOT Hips
{
	OFFSET 0.000000 0.300000 0.000000
	CHANNELS 6 Xposition Yposition Zposition Xrotation Yrotation Zrotation
	JOINT Spine
	{
		OFFSET 0.000000 0.080000 0.000000
		CHANNELS 3 Xrotation Yrotation Zrotation
		JOINT Spine1
		{
			OFFSET 0.000000 0.060000 0.000000
			CHANNELS 3 Xrotation Yrotation Zrotation
			JOINT Spine2
			{
				OFFSET 0.000000 0.050000 0.000000
				CHANNELS 3 Xrotation Yrotation Zrotation
				JOINT Neck
				{
					OFFSET 0.000000 0.040000 0.000000
					CHANNELS 3 Xrotation Yrotation Zrotation
					JOINT Head
					{
						OFFSET 0.000000 0.060000 0.000000
						CHANNELS 3 Xrotation Yrotation Zrotation
						End Site
						{
							OFFSET 0.000000 0.030000 0.000000
						}
					}
				}
				JOINT LeftShoulder
				{
					OFFSET 0.050000 0.020000 0.000000
					CHANNELS 3 Xrotation Yrotation Zrotation
					JOINT LeftArm
					{
						OFFSET 0.060000 0.000000 0.000000
						CHANNELS 3 Xrotation Yrotation Zrotation
						JOINT LeftForeArm
						{
							OFFSET 0.070000 0.000000 0.000000
							CHANNELS 3 Xrotation Yrotation Zrotation
							JOINT LeftHand
							{
								OFFSET 0.050000 0.000000 0.000000
								CHANNELS 3 Xrotation Yrotation Zrotation
								End Site
								{
									OFFSET 0.020000 0.000000 0.000000
								}
							}
						}
					}
				}
				JOINT RightShoulder
				{
					OFFSET -0.050000 0.020000 0.000000
					CHANNELS 3 Xrotation Yrotation Zrotation
					JOINT RightArm
					{
						OFFSET -0.060000 0.000000 0.000000
						CHANNELS 3 Xrotation Yrotation Zrotation
						JOINT RightForeArm
						{
							OFFSET -0.070000 0.000000 0.000000
							CHANNELS 3 Xrotation Yrotation Zrotation
							JOINT RightHand
							{
								OFFSET -0.050000 0.000000 0.000000
								CHANNELS 3 Xrotation Yrotation Zrotation
								End Site
								{
									OFFSET -0.020000 0.000000 0.000000
								}
							}
						}
					}
				}
			}
		}
	}
	JOINT LeftHip
	{
		OFFSET 0.040000 -0.020000 0.000000
		CHANNELS 3 Xrotation Yrotation Zrotation
		JOINT LeftLeg
		{
			OFFSET 0.000000 -0.120000 0.000000
			CHANNELS 3 Xrotation Yrotation Zrotation
			JOINT LeftFoot
			{
				OFFSET 0.000000 -0.120000 0.000000
				CHANNELS 3 Xrotation Yrotation Zrotation
				JOINT LeftToe
				{
					OFFSET 0.000000 0.000000 0.040000
					CHANNELS 3 Xrotation Yrotation Zrotation
					End Site
					{
						OFFSET 0.000000 0.000000 0.020000
					}
				}
			}
		}
	}
	JOINT RightHip
	{
		OFFSET -0.040000 -0.020000 0.000000
		CHANNELS 3 Xrotation Yrotation Zrotation
		JOINT RightLeg
		{
			OFFSET 0.000000 -0.120000 0.000000
			CHANNELS 3 Xrotation Yrotation Zrotation
			JOINT RightFoot
			{
				OFFSET 0.000000 -0.120000 0.000000
				CHANNELS 3 Xrotation Yrotation Zrotation
				JOINT RightToe
				{
					OFFSET 0.000000 0.000000 0.040000
					CHANNELS 3 Xrotation Yrotation Zrotation
					End Site
					{
						OFFSET 0.000000 0.000000 0.020000
					}
				}
			}
		}
	}
	JOINT Tail
	{
		OFFSET 0.000000 -0.010000 -0.050000
		CHANNELS 3 Xrotation Yrotation Zrotation
		JOINT Tail1
		{
			OFFSET 0.000000 -0.010000 -0.040000
			CHANNELS 3 Xrotation Yrotation Zrotation
			JOINT Tail2
			{
				OFFSET 0.000000 -0.010000 -0.040000
				CHANNELS 3 Xrotation Yrotation Zrotation
				JOINT Tail3
				{
					OFFSET 0.000000 -0.010000 -0.040000
					CHANNELS 3 Xrotation Yrotation Zrotation
					End Site
					{
						OFFSET 0.000000 0.000000 -0.030000
					}
				}
			}
		}
	}
}
MOTION
Frames: 9
Frame Time: 0.016667
0.000000 29.992000 0.000000 0.000000 0.000000 0.000000 -0.030000 0.000000 0.000000 0.000000 0.000000 0.000000 0.000000 0.000000 0.000000 0.000000 0.000000 0.000000 0.000000 -0.049999 0.000000 0.000000 0.000000 0.000000 -0.249996 0.000000 0.000000 0.000000 0.000000 0.000000 0.000000 0.000000 0.000000 0.000000 0.000000 0.000000 0.249996 0.000000 0.000000 0.000000 0.000000 0.000000 0.000000 0.000000 0.000000 0.000000 0.000000 0.000000 -0.299995 0.000000 0.000000 -0.449993 0.000000 0.000000 0.000000 0.000000 0.000000 0.000000 0.000000 0.000000 0.299995 0.000000 0.000000 -0.449993 0.000000 0.000000 0.000000 0.000000 0.000000 0.000000 0.099998 0.000000 0.000000 -2.859522 0.000000 0.000000 -5.563610 0.000000 0.000000 -7.770717 0.000000
0.000000 30.158496 0.833333 0.000000 0.000000 0.000000 0.594360 0.000000 0.000000 0.000000 0.000000 0.000000 0.000000 0.000000 0.000000 0.000000 0.000000 0.000000 0.000000 0.472891 0.000000 0.000000 0.000000 0.000000 2.364455 0.000000 0.000000 0.000000 0.000000 0.000000 0.000000 0.000000 0.000000 0.000000 0.000000 0.000000 -2.364455 0.000000 0.000000 0.000000 0.000000 0.000000 0.000000 0.000000 0.000000 0.000000 0.000000 0.000000 2.837346 0.000000 0.000000 -4.256018 0.000000 0.000000 0.000000 0.000000 0.000000 0.000000 0.000000 0.000000 -2.837346 0.000000 0.000000 -4.256018 0.000000 0.000000 0.000000 0.000000 0.000000 0.000000 -1.465499 0.000000 0.000000 -4.323340 0.000000 0.000000 -6.794991 0.000000 0.000000 -8.659664 0.000000
0.000000 30.318065 1.666667 0.000000 0.000000 0.000000 1.192743 0.000000 0.000000 0.000000 0.000000 0.000000 0.000000 0.000000 0.000000 0.000000 0.000000 0.000000 0.000000 0.990600 0.000000 0.000000 0.000000 0.000000 4.953000 0.000000 0.000000 0.000000 0.000000 0.000000 0.000000 0.000000 0.000000 0.000000 0.000000 0.000000 -4.953000 0.000000 0.000000 0.000000 0.000000 0.000000 0.000000 0.000000 0.000000 0.000000 0.000000 0.000000 5.943599 0.000000 0.000000 -8.915399 0.000000 0.000000 0.000000 0.000000 0.000000 0.000000 0.000000 0.000000 -5.943599 0.000000 0.000000 -8.915399 0.000000 0.000000 0.000000 0.000000 0.000000 0.000000 -2.994911 0.000000 0.000000 -5.680704 0.000000 0.000000 -7.859056 0.000000 0.000000 -9.335382 0.000000
0.000000 30.463733 2.500000 0.000000 0.000000 0.000000 1.738997 0.000000 0.000000 0.000000 0.000000 0.000000 0.000000 0.000000 0.000000 0.000000 0.000000 0.000000 0.000000 1.497456 0.000000 0.000000 0.000000 0.000000 7.487278 0.000000 0.000000 0.000000 0.000000 0.000000 0.000000 0.000000 0.000000 0.000000 0.000000 0.000000 -7.487278 0.000000 0.000000 0.000000 0.000000 0.000000 0.000000 0.000000 0.000000 0.000000 0.000000 0.000000 8.984734 0.000000 0.000000 -13.477101 0.000000 0.000000 0.000000 0.000000 0.000000 0.000000 0.000000 0.000000 -8.984734 0.000000 0.000000 -13.477101 0.000000 0.000000 0.000000 0.000000 0.000000 0.000000 -4.450579 0.000000 0.000000 -6.898189 0.000000 0.000000 -8.729605 0.000000 0.000000 -9.781231 0.000000
0.000000 30.589133 3.333333 0.000000 0.000000 0.000000 2.209249 0.000000 0.000000 0.000000 0.000000 0.000000 0.000000 0.000000 0.000000 0.000000 0.000000 0.000000 0.000000 1.987905 0.000000 0.000000 0.000000 0.000000 9.939525 0.000000 0.000000 0.000000 0.000000 0.000000 0.000000 0.000000 0.000000 0.000000 0.000000 0.000000 -9.939525 0.000000 0.000000 0.000000 0.000000 0.000000 0.000000 0.000000 0.000000 0.000000 0.000000 0.000000 11.927430 0.000000 0.000000 -17.891145 0.000000 0.000000 0.000000 0.000000 0.000000 0.000000 0.000000 0.000000 -11.927430 0.000000 0.000000 -17.891145 0.000000 0.000000 0.000000 0.000000 0.000000 0.000000 -5.796658 0.000000 0.000000 -7.945818 0.000000 0.000000 -9.385202 0.000000 0.000000 -9.986234 0.000000
0.000000 30.688786 4.166667 0.000000 0.000000 0.000000 2.582947 0.000000 0.000000 0.000000 0.000000 0.000000 0.000000 0.000000 0.000000 0.000000 0.000000 0.000000 0.000000 2.456574 0.000000 0.000000 0.000000 0.000000 12.282872 0.000000 0.000000 0.000000 0.000000 0.000000 0.000000 0.000000 0.000000 0.000000 0.000000 0.000000 -12.282872 0.000000 0.000000 0.000000 0.000000 0.000000 0.000000 0.000000 0.000000 0.000000 0.000000 0.000000 14.739447 0.000000 0.000000 -22.109170 0.000000 0.000000 0.000000 0.000000 0.000000 0.000000 0.000000 0.000000 -14.739447 0.000000 0.000000 -22.109170 0.000000 0.000000 0.000000 0.000000 0.000000 0.000000 -7.000005 0.000000 0.000000 -8.797795 0.000000 0.000000 -9.809704 0.000000 0.000000 -9.945342 0.000000
0.000000 30.758335 5.000000 0.000000 0.000000 0.000000 2.843757 0.000000 0.000000 0.000000 0.000000 0.000000 0.000000 0.000000 0.000000 0.000000 0.000000 0.000000 0.000000 2.898329 0.000000 0.000000 0.000000 0.000000 14.491646 0.000000 0.000000 0.000000 0.000000 0.000000 0.000000 0.000000 0.000000 0.000000 0.000000 0.000000 -14.491646 0.000000 0.000000 0.000000 0.000000 0.000000 0.000000 0.000000 0.000000 0.000000 0.000000 0.000000 17.389975 0.000000 0.000000 -26.084962 0.000000 0.000000 0.000000 0.000000 0.000000 0.000000 0.000000 0.000000 -17.389975 0.000000 0.000000 -26.084962 0.000000 0.000000 0.000000 0.000000 0.000000 0.000000 -8.030988 0.000000 0.000000 -9.433141 0.000000 0.000000 -9.992659 0.000000 0.000000 -9.659563 0.000000
0.000000 30.794742 5.833333 0.000000 0.000000 0.000000 2.980281 0.000000 0.000000 0.000000 0.000000 0.000000 0.000000 0.000000 0.000000 0.000000 0.000000 0.000000 0.000000 3.308329 0.000000 0.000000 0.000000 0.000000 16.541646 0.000000 0.000000 0.000000 0.000000 0.000000 0.000000 0.000000 0.000000 0.000000 0.000000 0.000000 -16.541646 0.000000 0.000000 0.000000 0.000000 0.000000 0.000000 0.000000 0.000000 0.000000 0.000000 0.000000 19.849975 0.000000 0.000000 -29.774962 0.000000 0.000000 0.000000 0.000000 0.000000 0.000000 0.000000 0.000000 -19.849975 0.000000 0.000000 -29.774962 0.000000 0.000000 0.000000 0.000000 0.000000 0.000000 -8.864221 0.000000 0.000000 -9.836211 0.000000 0.000000 -9.929562 0.000000 0.000000 -9.135934 0.000000
0.000000 30.796414 6.666667 0.000000 0.000000 0.000000 2.986552 0.000000 0.000000 0.000000 0.000000 0.000000 0.000000 0.000000 0.000000 0.000000 0.000000 0.000000 0.000000 3.682082 0.000000 0.000000 0.000000 0.000000 18.410412 0.000000 0.000000 0.000000 0.000000 0.000000 0.000000 0.000000 0.000000 0.000000 0.000000 0.000000 -18.410412 0.000000 0.000000 0.000000 0.000000 0.000000 0.000000 0.000000 0.000000 0.000000 0.000000 0.000000 22.092494 0.000000 0.000000 -33.138741 0.000000 0.000000 0.000000 0.000000 0.000000 0.000000 0.000000 0.000000 -22.092494 0.000000 0.000000 -33.138741 0.000000 0.000000 0.000000 0.000000 0.000000 0.000000 -9.479188 0.000000 0.000000 -9.997082 0.000000 0.000000 -9.621966 0.000000 0.000000 -8.387348 0.000000
